<?xml version="1.0" encoding="utf-8"?>
<!-- Generator: Adobe Illustrator 24.2.0, SVG Export Plug-In . SVG Version: 6.00 Build 0)  -->
<svg version="1.1" id="Layer_1" xmlns="http://www.w3.org/2000/svg" xmlns:xlink="http://www.w3.org/1999/xlink" x="0px" y="0px"
	 viewBox="0 0 1366 666" style="enable-background:new 0 0 1366 666;" xml:space="preserve">
<style type="text/css">
	.st0{fill:#FFFFFF;}
	.st1{font-family:'HelveticaNeue-Bold';}
	.st2{font-size:360px;}
</style>
<path d="M1354.6,0H11.4C5.2-0.1,0.1,4.9,0,11.1c0,0.1,0,0.2,0,0.3v643.2c0,6.3,5.1,11.4,11.4,11.4c0,0,0,0,0,0h1343.2
	c6.3,0,11.4-5.1,11.4-11.4c0,0,0,0,0,0V11.4c0.1-6.2-4.9-11.3-11.1-11.4C1354.8,0,1354.7,0,1354.6,0z"/>
<text transform="matrix(1 0 0 1 193.0456 458.4796)" class="st0 st1 st2">KENT</text>
</svg>
