<?xml version="1.0" encoding="utf-8"?>
<!-- Generator: Adobe Illustrator 24.2.0, SVG Export Plug-In . SVG Version: 6.00 Build 0)  -->
<svg version="1.1" id="Layer_1" xmlns="http://www.w3.org/2000/svg" xmlns:xlink="http://www.w3.org/1999/xlink" x="0px" y="0px"
	 viewBox="0 0 1366 666" style="enable-background:new 0 0 1366 666;" xml:space="preserve">
<style type="text/css">
	.st0{enable-background:new    ;}
	.st1{fill:#FFFFFF;}
</style>
<g id="Layer_1_copy">
	<path d="M1354.6,0H11.4C5.2-0.1,0.1,4.9,0,11.1c0,0.1,0,0.2,0,0.3v643.2c0,6.3,5.1,11.4,11.4,11.4c0,0,0,0,0,0h1343.2
		c6.3,0,11.4-5.1,11.4-11.4c0,0,0,0,0,0V11.4c0.1-6.2-4.9-11.3-11.1-11.4C1354.8,0,1354.7,0,1354.6,0z"/>
</g>
<g id="Layer_2_1_">
	<g class="st0">
		<path class="st1" d="M268.6,436.2c-16.7,16.3-39.8,24.4-69.3,24.4c-29.9,0-53-8.1-69.4-24.2c-16.4-16.1-24.6-41-24.6-74.7V208.2
			h48.6v153.5c0,6.7,0.5,13.3,1.5,19.7c1,6.5,3.2,12.2,6.5,17.1c3.3,5,7.9,9,13.8,12.1s13.8,4.7,23.7,4.7c17.3,0,29.3-4.3,35.9-13
			c6.6-8.6,9.9-22.2,9.9-40.6V208.2h48.6v153.5C293.7,395.1,285.3,420,268.6,436.2z"/>
		<path class="st1" d="M318.4,208.2h56.3L418,287l44.9-78.8h53.2l-70.8,117.9l77,129h-57.8l-48.3-85.4L367,455.1h-54.4l77-129.3
			L318.4,208.2z"/>
		<path class="st1" d="M746.8,208.2c9.9,0,18.8,1.8,26.8,5.4c7.9,3.6,14.7,8.5,20.4,14.7c5.7,6.2,10,13.4,13,21.6
			c3,8.2,4.5,17,4.5,26.5c0,14.5-2.7,27.1-8.2,37.7c-5.5,10.6-14.4,18.7-26.8,24.2v0.7c6,1.8,10.9,4.7,14.8,8.5
			c3.9,3.8,7.1,8.3,9.6,13.5c2.5,5.2,4.3,10.9,5.4,17.1c1.1,6.2,1.9,12.4,2.3,18.7c0.2,3.9,0.4,8.5,0.6,13.8
			c0.2,5.3,0.6,10.7,1.1,16.3c0.5,5.5,1.3,10.8,2.5,15.7c1.1,5,2.8,9.2,5.1,12.6h-48.6c-2.7-7.8-4.3-17.2-4.9-28
			c-0.6-10.8-1.5-21.2-2.8-31.1c-1.7-12.9-5.2-22.4-10.5-28.4c-5.4-6-14.1-9-26.3-9h-48.6v96.5h-48.6V208.2H746.8z M729.5,319.9
			c11.1,0,19.5-2.8,25.1-8.3c5.6-5.5,8.4-14.5,8.4-27c0-12-2.8-20.7-8.4-26.1c-5.6-5.4-13.9-8.1-25.1-8.1h-53.2v69.5H729.5z"/>
		<path class="st1" d="M944.9,452.3c-10,4.8-21.3,7.3-33.9,7.3c-9.9,0-19.2-1.6-28-4.8c-8.8-3.2-16.3-8-22.7-14.4
			c-6.4-6.3-11.4-14.1-15.2-23.2c-3.7-9.1-5.6-19.5-5.6-31.3c0-8.8,1.3-16.8,4-24c2.7-7.3,6.3-13.8,11-19.7s9.9-11.1,15.9-15.7
			c6-4.6,12.2-8.6,18.6-12.1c-6-8.1-11-16.1-15-24.2c-4-8.1-6-17.5-6-28.4c0-8.5,1.6-16.3,4.8-23.2c3.2-6.9,7.5-12.8,12.8-17.8
			c5.4-5,11.5-8.8,18.4-11.4c6.9-2.6,14.1-4,21.5-4c8.5,0,16.3,1.3,23.7,3.8c7.3,2.5,13.7,6.3,19.2,11.2c5.5,5,9.8,11.1,13,18.5
			c3.2,7.4,4.8,15.9,4.8,25.6c0,14.5-3.8,26.7-11.3,36.7c-7.5,9.9-16.9,18.2-28,24.9l28.5,39.1c2.3-4.6,4-9.4,5.3-14.4
			c1.2-5,2.2-10,2.8-15h38c-1,11.1-3.3,21.8-6.8,32.2c-3.5,10.4-8.4,19.9-14.5,28.7l44.9,58.4h-53.8l-17.9-24.6
			C964.4,440.2,954.9,447.5,944.9,452.3z M900.9,352.7c-3.7,2.5-7,5.5-9.9,9c-2.9,3.5-5.2,7.3-7,11.4c-1.8,4.1-2.6,8.8-2.6,13.8
			c0,4.4,0.9,8.6,2.6,12.6c1.7,4,4.1,7.5,7,10.4c2.9,2.9,6.2,5.2,10.1,6.9c3.8,1.7,7.8,2.6,11.9,2.6c7.8,0,14.7-2,20.6-6.1
			c5.9-4,11.4-9.3,16.5-15.7l-37.7-51.5C908.4,348,904.6,350.2,900.9,352.7z M941.8,245.2c-4-4.6-8.7-6.9-14.1-6.9
			c-5.4,0-10,2-13.9,6.1c-3.9,4-5.9,9.3-5.9,15.7c0,7.8,1.9,14.5,5.6,20.1c3.7,5.5,7.6,11.2,11.8,16.9c6.2-4.4,11.5-9.1,15.9-14.2
			c4.4-5.1,6.7-12.1,6.7-21.1C947.9,255.3,945.9,249.8,941.8,245.2z"/>
		<path class="st1" d="M1158.2,208.2c14.2,0,27.5,2.5,39.7,7.6c12.3,5.1,22.9,12.7,31.9,22.8c9,10.1,16,22.8,21,38
			c5.1,15.2,7.6,33.1,7.6,53.6c0,18-2.1,34.6-6.2,49.8c-4.1,15.2-10.4,28.4-18.7,39.4c-8.4,11.1-18.8,19.8-31.2,26.1
			c-12.5,6.3-27.2,9.5-44.1,9.5h-95.3V208.2H1158.2z M1154.8,409.4c7,0,13.8-1.3,20.4-3.8c6.6-2.5,12.5-6.7,17.6-12.6
			c5.2-5.9,9.3-13.5,12.4-23c3.1-9.5,4.6-21,4.6-34.6c0-12.4-1.1-23.7-3.2-33.7c-2.2-10-5.7-18.6-10.7-25.8
			c-4.9-7.1-11.5-12.6-19.6-16.4c-8.1-3.8-18.2-5.7-30.2-5.7h-34.6v155.6H1154.8z"/>
	</g>
</g>
</svg>
